<svg class="animated" id="freepik_stories-credit-card" xmlns="http://www.w3.org/2000/svg" viewBox="0 0 500 372.61" version="1.1" xmlns:xlink="http://www.w3.org/1999/xlink" xmlns:svgjs="http://svgjs.com/svgjs"><style>svg#freepik_stories-credit-card:not(.animated) .animable {opacity: 0;}svg#freepik_stories-credit-card.animated #freepik--background-complete--inject-1 {animation: 1s 1 forwards cubic-bezier(.36,-0.01,.5,1.38) slideRight;animation-delay: 0s;}svg#freepik_stories-credit-card.animated #freepik--Shadow--inject-1 {animation: 1s 1 forwards cubic-bezier(.36,-0.01,.5,1.38) slideRight;animation-delay: 0s;}svg#freepik_stories-credit-card.animated #freepik--Coins--inject-1 {animation: 1.5s 1 forwards cubic-bezier(.36,-0.01,.5,1.38) slideUp,6s Infinite  linear floating;animation-delay: 0s,1.5s;}svg#freepik_stories-credit-card.animated #freepik--credit-card--inject-1 {animation: 1s 1 forwards cubic-bezier(.36,-0.01,.5,1.38) slideLeft;animation-delay: 0s;}svg#freepik_stories-credit-card.animated #freepik--Character--inject-1 {animation: 1s 1 forwards cubic-bezier(.36,-0.01,.5,1.38) fadeIn;animation-delay: 0s;}            @keyframes slideRight {                0% {                    opacity: 0;                    transform: translateX(30px);                }                100% {                    opacity: 1;                    transform: translateX(0);                }            }                    @keyframes slideUp {                0% {                    opacity: 0;                    transform: translateY(30px);                }                100% {                    opacity: 1;                    transform: inherit;                }            }                    @keyframes floating {                0% {                    opacity: 1;                    transform: translateY(0px);                }                50% {                    transform: translateY(-10px);                }                100% {                    opacity: 1;                    transform: translateY(0px);                }            }                    @keyframes slideLeft {                0% {                    opacity: 0;                    transform: translateX(-30px);                }                100% {                    opacity: 1;                    transform: translateX(0);                }            }                    @keyframes fadeIn {                0% {                    opacity: 0;                }                100% {                    opacity: 1;                }            }        </style><g id="freepik--background-complete--inject-1" class="animable" style="transform-origin: 250px 194.17px;"><rect y="327.45" width="500" height="0.25" style="fill: rgb(230, 230, 230); transform-origin: 250px 327.575px;" id="elaijizc33cle" class="animable"></rect><rect x="343.26" y="338.04" width="34.4" height="0.25" style="fill: rgb(230, 230, 230); transform-origin: 360.46px 338.165px;" id="elhoiu2nvtwz" class="animable"></rect><rect x="91.68" y="338.16" width="19.36" height="0.25" style="fill: rgb(230, 230, 230); transform-origin: 101.36px 338.285px;" id="elq5e5z0yncig" class="animable"></rect><rect x="211.76" y="337.58" width="39.24" height="0.25" style="fill: rgb(230, 230, 230); transform-origin: 231.38px 337.705px;" id="elagtgbeloo5q" class="animable"></rect><rect x="193.22" y="334.02" width="17.54" height="0.25" style="fill: rgb(230, 230, 230); transform-origin: 201.99px 334.145px;" id="elnc41om1d7wg" class="animable"></rect><rect x="371.57" y="334.14" width="52.99" height="0.25" style="fill: rgb(230, 230, 230); transform-origin: 398.065px 334.265px;" id="el780wnpnf48q" class="animable"></rect><g id="elyi6v0u9rngn"><path d="M237,337.8H43.91a5.71,5.71,0,0,1-5.7-5.71V60.66A5.71,5.71,0,0,1,43.91,55H237a5.71,5.71,0,0,1,5.71,5.71V332.09A5.71,5.71,0,0,1,237,337.8ZM43.91,55.2a5.46,5.46,0,0,0-5.45,5.46V332.09a5.46,5.46,0,0,0,5.45,5.46H237a5.47,5.47,0,0,0,5.46-5.46V60.66A5.47,5.47,0,0,0,237,55.2Z" style="fill: rgb(230, 230, 230); transform-origin: 140.46px 196.4px;" class="animable" id="elc7616wsmti"></path></g><g id="ellkmwazx4iv"><path d="M453.31,337.8H260.21a5.72,5.72,0,0,1-5.71-5.71V60.66A5.72,5.72,0,0,1,260.21,55h193.1A5.71,5.71,0,0,1,459,60.66V332.09A5.71,5.71,0,0,1,453.31,337.8ZM260.21,55.2a5.47,5.47,0,0,0-5.46,5.46V332.09a5.47,5.47,0,0,0,5.46,5.46h193.1a5.47,5.47,0,0,0,5.46-5.46V60.66a5.47,5.47,0,0,0-5.46-5.46Z" style="fill: rgb(230, 230, 230); transform-origin: 356.75px 196.4px;" class="animable" id="el38xn323cku6"></path></g><rect x="286.75" y="18.68" width="136.28" height="158.8" style="fill: rgb(224, 224, 224); transform-origin: 354.89px 98.08px;" id="elbrds4bz9ykw" class="animable"></rect><rect x="288.48" y="18.68" width="138.25" height="158.8" style="fill: rgb(245, 245, 245); transform-origin: 357.605px 98.08px;" id="el0yfvaw22r2qc" class="animable"></rect><rect x="286.75" y="177.47" width="136.28" height="8.9" style="fill: rgb(224, 224, 224); transform-origin: 354.89px 181.92px;" id="elhlah4ptln8" class="animable"></rect><rect x="313.52" y="177.47" width="130.15" height="8.9" style="fill: rgb(245, 245, 245); transform-origin: 378.595px 181.92px;" id="elh10f9bi1nxb" class="animable"></rect><g id="elpajvq1wuuno"><rect x="284.94" y="89.09" width="145.33" height="127.88" style="fill: rgb(250, 250, 250); transform-origin: 357.605px 153.03px; transform: rotate(90deg);" class="animable" id="el1gcx6za239w"></rect></g><polygon points="312.06 170.74 342.5 25.41 382.4 25.41 351.96 170.74 312.06 170.74" style="fill: rgb(255, 255, 255); transform-origin: 347.23px 98.075px;" id="elcze6x5pj3sp" class="animable"></polygon><polygon points="358.42 170.74 388.85 25.41 406.87 25.41 376.44 170.74 358.42 170.74" style="fill: rgb(255, 255, 255); transform-origin: 382.645px 98.075px;" id="el6bkrlwbszyt" class="animable"></polygon><g id="elpajxj961rn"><path d="M282.86,73.4v56.54h15s26.87-17.53,33-53.6a6,6,0,0,0-5.9-7h-38A4.07,4.07,0,0,0,282.86,73.4Z" style="fill: rgb(224, 224, 224); transform-origin: 306.902px 99.6399px;" class="animable" id="els4v03enmy4"></path></g><g id="elhhbh9r4ylid"><path d="M282.86,220.57V134.5h15s8.6,17.38,17.17,37.36a34.94,34.94,0,0,1-32.13,48.71Z" style="fill: rgb(224, 224, 224); transform-origin: 300.359px 177.535px;" class="animable" id="eljq2tehmgyr"></path></g><rect x="281.91" y="74.99" width="16.97" height="4.56" rx="1.5" style="fill: rgb(245, 245, 245); transform-origin: 290.395px 77.27px;" id="el12tt41q0dg4h" class="animable"></rect><g id="el0zvtjszq6uo"><path d="M431,73.4v56.54H416s-26.88-17.53-33-53.6a6,6,0,0,1,5.89-7h38A4.07,4.07,0,0,1,431,73.4Z" style="fill: rgb(224, 224, 224); transform-origin: 406.958px 99.6399px;" class="animable" id="eljvd5fd9cr3b"></path></g><g id="elsvkyqxawwv"><path d="M431.1,220.59V134.52h-15s-8.6,17.37-17.18,37.36a35,35,0,0,0,32.14,48.71Z" style="fill: rgb(224, 224, 224); transform-origin: 413.612px 177.555px;" class="animable" id="elydkadg5ek9"></path></g><g id="el5k9oivrtb5i"><rect x="414.95" y="129.94" width="16.97" height="4.56" rx="1.5" style="fill: rgb(245, 245, 245); transform-origin: 423.435px 132.22px; transform: rotate(180deg);" class="animable" id="elmv7p347yo1"></rect></g><rect x="140.86" y="88.64" width="60.03" height="65.71" style="fill: rgb(224, 224, 224); transform-origin: 170.875px 121.495px;" id="elfwmbjbhlv6" class="animable"></rect><rect x="144.11" y="88.64" width="65.22" height="65.71" style="fill: rgb(250, 250, 250); transform-origin: 176.72px 121.495px;" id="elhgqjh5ez9vf" class="animable"></rect><g id="elnig3t4kiygm"><rect x="150.59" y="150.57" width="52.26" height="51.77" style="fill: rgb(255, 255, 255); transform-origin: 176.72px 176.455px; transform: rotate(90deg);" class="animable" id="elgqohkxckhy7"></rect></g><g id="el1td9bhxfidh"><path d="M163,176.45h0a12.35,12.35,0,0,1,12.35-12.34h2.78a12.35,12.35,0,0,1,12.34,12.34h0a12.34,12.34,0,0,1-12.34,12.34h-2.78A12.34,12.34,0,0,1,163,176.45Z" style="fill: rgb(245, 245, 245); transform-origin: 176.735px 176.45px;" class="animable" id="el4agsch04bp7"></path></g><g id="eltgpxzbinjpf"><path d="M92.24,159.27a31.48,31.48,0,1,1,0-63h5.69v63Z" style="fill: rgb(224, 224, 224); transform-origin: 79.335px 127.77px;" class="animable" id="el8thjjqo268"></path></g><circle cx="97.93" cy="72.84" r="31.48" style="fill: rgb(250, 250, 250); transform-origin: 97.93px 72.84px;" id="elyff8j6gpe3" class="animable"></circle><circle cx="97.93" cy="72.84" r="23.74" style="fill: rgb(255, 255, 255); transform-origin: 97.93px 72.84px;" id="elimyj34566ym" class="animable"></circle><polygon points="107.71 81.72 96.05 73.58 99.75 55.6 103.05 56.28 99.8 72.09 109.64 78.95 107.71 81.72" style="fill: rgb(224, 224, 224); transform-origin: 102.845px 68.66px;" id="elyoxwioou2qj" class="animable"></polygon><rect x="309.43" y="215.05" width="42.91" height="115.94" style="fill: rgb(224, 224, 224); transform-origin: 330.885px 273.02px;" id="el31mqj669hwh" class="animable"></rect><polygon points="340.88 330.99 352.34 330.99 352.34 311.79 328.87 311.79 340.88 330.99" style="fill: rgb(250, 250, 250); transform-origin: 340.605px 321.39px;" id="elqtt10pqobg" class="animable"></polygon><rect x="52.18" y="215.05" width="42.91" height="115.94" style="fill: rgb(224, 224, 224); transform-origin: 73.635px 273.02px;" id="elb8vslvrq6" class="animable"></rect><rect x="85.09" y="215.05" width="267.26" height="109.33" style="fill: rgb(250, 250, 250); transform-origin: 218.72px 269.715px;" id="elzztwkb0wxq" class="animable"></rect><polygon points="96.55 330.99 85.09 330.99 85.09 311.79 108.56 311.79 96.55 330.99" style="fill: rgb(250, 250, 250); transform-origin: 96.825px 321.39px;" id="el4esxv58ohhh" class="animable"></polygon><rect x="93.98" y="224.45" width="249.48" height="40.24" style="fill: rgb(240, 240, 240); transform-origin: 218.72px 244.57px;" id="elvee6dmpm0il" class="animable"></rect><rect x="93.98" y="274.42" width="249.48" height="40.24" style="fill: rgb(240, 240, 240); transform-origin: 218.72px 294.54px;" id="elao0vg547jg8" class="animable"></rect><rect x="93.98" y="224.45" width="212.9" height="40.24" style="fill: rgb(224, 224, 224); transform-origin: 200.43px 244.57px;" id="el2fdj82vlyf4" class="animable"></rect><g id="elrnnew6nppge"><path d="M159.54,284.83H146.59s2.25,7.77,2.25,12.34-9.85,22.48,4.23,22.48,4.22-17.91,4.22-22.48S159.54,284.83,159.54,284.83Z" style="fill: rgb(250, 250, 250); transform-origin: 153.068px 302.24px;" class="animable" id="el8pxxblflcoj"></path></g><g id="elyjv7tka0f5g"><path d="M108.56,298.33v7.07c0,7.84,7.58,14.25,16.84,14.25h8.35c9.26,0,16.84-6.41,16.84-14.25v-7.07Z" style="fill: rgb(240, 240, 240); transform-origin: 129.575px 308.99px;" class="animable" id="elcpijmtjug5"></path></g><rect x="93.98" y="274.42" width="212.9" height="40.24" style="fill: rgb(224, 224, 224); transform-origin: 200.43px 294.54px;" id="el1njihafbiky" class="animable"></rect><g id="elstzptfajyo"><rect x="213.54" y="335.67" width="19.94" height="33.21" style="fill: rgb(255, 255, 255); transform-origin: 223.51px 352.275px; transform: rotate(180deg);" class="animable" id="elxnvljm619e"></rect></g><g id="el0sj5pvi7mvr"><rect x="230.38" y="336.19" width="1.36" height="33.21" style="fill: rgb(230, 230, 230); transform-origin: 231.06px 352.795px; transform: rotate(180deg);" class="animable" id="elvc5ic5k749k"></rect></g><g id="elxfvxzh8bl"><rect x="231.36" y="335.94" width="4.44" height="33.72" rx="0.48" style="fill: rgb(235, 235, 235); transform-origin: 233.58px 352.8px; transform: rotate(180deg);" class="animable" id="elpsf4sxpi7yt"></rect></g><g id="elkcf4ak9pte"><rect x="231.36" y="343.64" width="4.44" height="7.88" style="fill: rgb(255, 255, 255); transform-origin: 233.58px 347.58px; transform: rotate(180deg);" class="animable" id="eldr586a0fj7e"></rect></g><g id="el7sqlmdzwxnj"><rect x="231.36" y="353.94" width="4.44" height="4.86" style="fill: rgb(255, 255, 255); transform-origin: 233.58px 356.37px; transform: rotate(180deg);" class="animable" id="el6tny2pyzjde"></rect></g><g id="elwjvwmofhd1"><rect x="212.06" y="335.94" width="18.93" height="33.72" rx="0.48" style="fill: rgb(235, 235, 235); transform-origin: 221.525px 352.8px; transform: rotate(180deg);" class="animable" id="elhx8dshjulzf"></rect></g><g id="el82zpqeyvqfo"><rect x="203.83" y="332.17" width="22" height="36.64" style="fill: rgb(255, 255, 255); transform-origin: 214.83px 350.49px; transform: rotate(180deg);" class="animable" id="eluw4yrcbarf"></rect></g><g id="ellw2h73bmnt"><rect x="222.4" y="332.74" width="1.49" height="36.64" style="fill: rgb(230, 230, 230); transform-origin: 223.145px 351.06px; transform: rotate(180deg);" class="animable" id="elcz1mor3ktil"></rect></g><g id="el3vk4qq5aokl"><rect x="223.48" y="332.46" width="4.9" height="37.2" rx="0.53" style="fill: rgb(240, 240, 240); transform-origin: 225.93px 351.06px; transform: rotate(180deg);" class="animable" id="el0k38o3hijat7"></rect></g><g id="eli5gv6zy9h2r"><rect x="223.48" y="344.31" width="4.9" height="1.27" style="fill: rgb(255, 255, 255); transform-origin: 225.93px 344.945px; transform: rotate(180deg);" class="animable" id="elhlx1n52kgjh"></rect></g><g id="el43lh1vbkq57"><rect x="223.48" y="347.98" width="4.9" height="1.27" style="fill: rgb(255, 255, 255); transform-origin: 225.93px 348.615px; transform: rotate(180deg);" class="animable" id="elw3ctqkn2a4c"></rect></g><g id="ela2rju3cg6q"><rect x="223.48" y="351.66" width="4.9" height="1.27" style="fill: rgb(255, 255, 255); transform-origin: 225.93px 352.295px; transform: rotate(180deg);" class="animable" id="elehn2p1v73td"></rect></g><g id="elrtndnwelto"><rect x="202.19" y="332.46" width="20.88" height="37.2" rx="0.53" style="fill: rgb(240, 240, 240); transform-origin: 212.63px 351.06px; transform: rotate(180deg);" class="animable" id="elz5pntmpv6h"></rect></g><g id="elmv2uqsaldr"><path d="M176.72,356.89a5.64,5.64,0,1,1-5.64-5.63A5.64,5.64,0,0,1,176.72,356.89Z" style="fill: rgb(250, 250, 250); transform-origin: 171.08px 356.9px;" class="animable" id="elgpgdjq21dzs"></path></g><g id="elshh4aw3wii"><path d="M167.11,359.58a4.41,4.41,0,1,1-4.41-4.41A4.42,4.42,0,0,1,167.11,359.58Z" style="fill: rgb(250, 250, 250); transform-origin: 162.7px 359.58px;" class="animable" id="elmcnueu0hgi"></path></g><g id="eltcatyw6cgm"><path d="M186.37,359.58a5.64,5.64,0,1,1-5.64-5.64A5.65,5.65,0,0,1,186.37,359.58Z" style="fill: rgb(250, 250, 250); transform-origin: 180.73px 359.58px;" class="animable" id="elnpsx2udzch"></path></g><g id="eldqpetlivw5e"><path d="M195.61,357.93a5.64,5.64,0,1,1-5.64-5.64A5.64,5.64,0,0,1,195.61,357.93Z" style="fill: rgb(250, 250, 250); transform-origin: 189.97px 357.93px;" class="animable" id="elwmteu4s2xn"></path></g><g id="el1r8ndyx4r7aj"><path d="M147.18,358.66s.77,11,30.44,11,30.44-11,30.44-11Z" style="fill: rgb(245, 245, 245); transform-origin: 177.62px 364.16px;" class="animable" id="elq42vjaoj7in"></path></g><g id="el9ueagsbr8t"><path d="M230.38,308.65s1.23,11,48.25,11,48.24-11,48.24-11Z" style="fill: rgb(255, 255, 255); transform-origin: 278.625px 314.15px;" class="animable" id="elk67uwoqqmx"></path></g></g><g id="freepik--Shadow--inject-1" class="animable" style="transform-origin: 250px 361.29px;"><ellipse cx="250" cy="361.29" rx="193.89" ry="11.32" style="fill: rgb(245, 245, 245); transform-origin: 250px 361.29px;" id="elg653kry9s3" class="animable"></ellipse></g><g id="freepik--Coins--inject-1" class="animable" style="transform-origin: 140.318px 205.947px;"><g id="elumuruxwfsge"><circle cx="108.63" cy="228.03" r="54.16" style="fill: #00FF88; transform-origin: 108.63px 228.03px; transform: rotate(-45deg);" class="animable" id="elm7mwl1uogth"></circle></g><g id="elfodcid7dq6d"><circle cx="108.63" cy="228.03" r="54.16" style="opacity: 0.4; transform-origin: 108.63px 228.03px; transform: rotate(-45deg);" class="animable" id="el7oa4h5act2n"></circle></g><g id="elk0p3b2was19"><circle cx="108.63" cy="228.03" r="45.48" style="opacity: 0.2; transform-origin: 108.63px 228.03px; transform: rotate(-80.32deg);" class="animable" id="el81se3u8sm76"></circle></g><g id="el88h8ccfn2w6"><circle cx="111.5" cy="229.83" r="43.66" style="fill: #00FF88; transform-origin: 111.5px 229.83px; transform: rotate(-85.9958deg);" class="animable" id="ely95ycli30qf"></circle></g><g id="elppoopar45i"><circle cx="111.5" cy="229.83" r="43.66" style="opacity: 0.4; transform-origin: 111.5px 229.83px; transform: rotate(-85.9958deg);" class="animable" id="elmk80j5xr27"></circle></g><g id="elh5q1qihujmi"><path d="M126.61,223.86l2.85,12.35A3.51,3.51,0,0,1,129,239a3.67,3.67,0,0,1-2.33,1.65l-10.86,2.51,2,8.69a3.47,3.47,0,0,1-.48,2.77A3.51,3.51,0,0,1,115,256.2a3.68,3.68,0,0,1-2.83-.44,3.48,3.48,0,0,1-1.64-2.28l-2-8.79-10.77,2.49a3.54,3.54,0,0,1-2.74-.46,3.5,3.5,0,0,1-1.65-2.28,3.56,3.56,0,0,1,.46-2.76,3.5,3.5,0,0,1,2.28-1.63l25.2-5.81-1.18-5.13L95,234.9a3.55,3.55,0,0,1-2.76-.43,3.5,3.5,0,0,1-1.63-2.31l-2.84-12.3a3.66,3.66,0,0,1,2.74-4.39L101.23,213l-2-8.7a3.55,3.55,0,0,1,.42-2.73,3.59,3.59,0,0,1,2.44-1.68,3.51,3.51,0,0,1,2.73.46,3.57,3.57,0,0,1,1.62,2.29l2,8.69,11-2.52a3.63,3.63,0,0,1,2.81.47,3.48,3.48,0,0,1,1.66,2.25,3.79,3.79,0,0,1-2.81,4.49l-25.2,5.81L97,226.93l25.11-5.79a3.63,3.63,0,0,1,2.81.47A3.45,3.45,0,0,1,126.61,223.86Z" style="fill: #00FF88; transform-origin: 108.623px 228.05px;" class="animable" id="elnba8lj8wlxa"></path></g><g id="elb9c6m7wbsdm"><g style="opacity: 0.7; transform-origin: 108.623px 228.05px;" class="animable" id="elug588mczfe"><g id="el3fdi6hl2y2a"><path d="M126.61,223.86l2.85,12.35A3.51,3.51,0,0,1,129,239a3.67,3.67,0,0,1-2.33,1.65l-10.86,2.51,2,8.69a3.47,3.47,0,0,1-.48,2.77A3.51,3.51,0,0,1,115,256.2a3.68,3.68,0,0,1-2.83-.44,3.48,3.48,0,0,1-1.64-2.28l-2-8.79-10.77,2.49a3.54,3.54,0,0,1-2.74-.46,3.5,3.5,0,0,1-1.65-2.28,3.56,3.56,0,0,1,.46-2.76,3.5,3.5,0,0,1,2.28-1.63l25.2-5.81-1.18-5.13L95,234.9a3.55,3.55,0,0,1-2.76-.43,3.5,3.5,0,0,1-1.63-2.31l-2.84-12.3a3.66,3.66,0,0,1,2.74-4.39L101.23,213l-2-8.7a3.55,3.55,0,0,1,.42-2.73,3.59,3.59,0,0,1,2.44-1.68,3.51,3.51,0,0,1,2.73.46,3.57,3.57,0,0,1,1.62,2.29l2,8.69,11-2.52a3.63,3.63,0,0,1,2.81.47,3.48,3.48,0,0,1,1.66,2.25,3.79,3.79,0,0,1-2.81,4.49l-25.2,5.81L97,226.93l25.11-5.79a3.63,3.63,0,0,1,2.81.47A3.45,3.45,0,0,1,126.61,223.86Z" style="fill: rgb(255, 255, 255); transform-origin: 108.623px 228.05px;" class="animable" id="el963o600u06s"></path></g></g></g><g id="elsj0oq3jjq9"><circle cx="195.33" cy="160.54" r="37.8" style="fill: #00FF88; transform-origin: 195.33px 160.54px; transform: rotate(-49.8deg);" class="animable" id="el7lrkwpzt7s2"></circle></g><g id="eler6bzasuzfv"><circle cx="195.33" cy="160.54" r="37.8" style="opacity: 0.4; transform-origin: 195.33px 160.54px; transform: rotate(-49.8deg);" class="animable" id="el3tjs575vay2"></circle></g><g id="elz5xg4312o1m"><circle cx="195.33" cy="160.54" r="31.74" style="opacity: 0.2; transform-origin: 195.33px 160.54px; transform: rotate(-50.42deg);" class="animable" id="elduycliokqub"></circle></g><g id="elzv1kn2v6ilf"><circle cx="196.54" cy="162.57" r="30.47" style="fill: #00FF88; transform-origin: 196.54px 162.57px; transform: rotate(-52.61deg);" class="animable" id="elglnvu0pckju"></circle></g><g id="ele3jvdnei0mq"><circle cx="196.54" cy="162.57" r="30.47" style="opacity: 0.4; transform-origin: 196.54px 162.57px; transform: rotate(-52.61deg);" class="animable" id="el8gp1m3wkdi"></circle></g><g id="el9cuq5pfe2eu"><path d="M207.82,163.66l-2.15,8.58a2.41,2.41,0,0,1-1.18,1.55,2.58,2.58,0,0,1-2,.29L195,172.19l-1.52,6a2.42,2.42,0,0,1-1.18,1.56,2.46,2.46,0,0,1-1.92.29,2.57,2.57,0,0,1-1.61-1.17,2.46,2.46,0,0,1-.3-1.94l1.53-6.1L182.5,169a2.47,2.47,0,0,1-1.56-1.16,2.43,2.43,0,0,1-.3-1.93,2.46,2.46,0,0,1,1.16-1.58,2.49,2.49,0,0,1,1.94-.28l17.5,4.39.9-3.56-17.45-4.38a2.43,2.43,0,0,1-1.57-1.15,2.39,2.39,0,0,1-.28-1.94l2.14-8.55a2.54,2.54,0,0,1,3.1-1.85l7.42,1.86,1.52-6A2.51,2.51,0,0,1,200.2,141a2.39,2.39,0,0,1,1.54,1.15,2.47,2.47,0,0,1,.29,1.93l-1.52,6,7.6,1.91a2.53,2.53,0,0,1,1.6,1.19,2.44,2.44,0,0,1,.32,1.92,2.58,2.58,0,0,1-1.2,1.6,2.55,2.55,0,0,1-2,.3l-17.51-4.39-.88,3.54,17.44,4.37a2.53,2.53,0,0,1,1.6,1.19A2.39,2.39,0,0,1,207.82,163.66Z" style="fill: #00FF88; transform-origin: 195.331px 160.506px;" class="animable" id="el15cr8xt92u2"></path></g><g id="el15kblc634nm"><g style="opacity: 0.7; transform-origin: 195.331px 160.506px;" class="animable" id="elt4b6e2i86jn"><g id="el8ynfx42ov09"><path d="M207.82,163.66l-2.15,8.58a2.41,2.41,0,0,1-1.18,1.55,2.58,2.58,0,0,1-2,.29L195,172.19l-1.52,6a2.42,2.42,0,0,1-1.18,1.56,2.46,2.46,0,0,1-1.92.29,2.57,2.57,0,0,1-1.61-1.17,2.46,2.46,0,0,1-.3-1.94l1.53-6.1L182.5,169a2.47,2.47,0,0,1-1.56-1.16,2.43,2.43,0,0,1-.3-1.93,2.46,2.46,0,0,1,1.16-1.58,2.49,2.49,0,0,1,1.94-.28l17.5,4.39.9-3.56-17.45-4.38a2.43,2.43,0,0,1-1.57-1.15,2.39,2.39,0,0,1-.28-1.94l2.14-8.55a2.54,2.54,0,0,1,3.1-1.85l7.42,1.86,1.52-6A2.51,2.51,0,0,1,200.2,141a2.39,2.39,0,0,1,1.54,1.15,2.47,2.47,0,0,1,.29,1.93l-1.52,6,7.6,1.91a2.53,2.53,0,0,1,1.6,1.19,2.44,2.44,0,0,1,.32,1.92,2.58,2.58,0,0,1-1.2,1.6,2.55,2.55,0,0,1-2,.3l-17.51-4.39-.88,3.54,17.44,4.37a2.53,2.53,0,0,1,1.6,1.19A2.39,2.39,0,0,1,207.82,163.66Z" style="fill: rgb(255, 255, 255); transform-origin: 195.331px 160.506px;" class="animable" id="elwazm01o4vdo"></path></g></g></g></g><g id="freepik--credit-card--inject-1" class="animable" style="transform-origin: 250px 268.165px;"><rect x="102.26" y="334.02" width="1" height="11.29" style="fill: #00FF88; transform-origin: 102.76px 339.665px;" id="elrsxqhjpaa3j" class="animable"></rect><g id="el7dsjofbf1p3"><rect x="102.26" y="334.02" width="1" height="11.29" style="opacity: 0.1; transform-origin: 102.76px 339.665px;" class="animable" id="elf3jhymgskvh"></rect></g><rect x="396.74" y="244.57" width="1" height="15.47" style="fill: #00FF88; transform-origin: 397.24px 252.305px;" id="elkqv5lal3ysa" class="animable"></rect><rect x="396.74" y="268.16" width="1" height="8.39" style="fill: #00FF88; transform-origin: 397.24px 272.355px;" id="elcp4usz6hmii" class="animable"></rect><g id="elqr97pmq29an"><rect x="396.74" y="244.57" width="1" height="15.47" style="opacity: 0.1; transform-origin: 397.24px 252.305px;" class="animable" id="elfnkar4p38x6"></rect></g><g id="elz5xph86bs9"><rect x="396.74" y="268.16" width="1" height="8.39" style="opacity: 0.1; transform-origin: 397.24px 272.355px;" class="animable" id="el8a0t2rpfwcl"></rect></g><rect x="105.76" y="177.49" width="288.49" height="181.35" rx="15.05" style="fill: #00FF88; transform-origin: 250.005px 268.165px;" id="elrs47ef3w57" class="animable"></rect><g id="el7mumrjg6ore"><rect x="105.76" y="177.49" width="288.49" height="181.35" rx="15.05" style="opacity: 0.2; transform-origin: 250.005px 268.165px;" class="animable" id="ele6gxenyb6i"></rect></g><g id="elwf48tqk5den"><path d="M347.55,295.59a18.67,18.67,0,0,0,0-37.34h-24.1a18.67,18.67,0,0,0,0,37.34Z" style="fill: #00FF88; transform-origin: 335.5px 276.92px;" class="animable" id="el7ly4bgv26rj"></path></g><rect x="133.79" y="240.63" width="57.43" height="42.03" rx="6.48" style="fill: #00FF88; transform-origin: 162.505px 261.645px;" id="elpek5bdvfrtg" class="animable"></rect><g id="elhxom1sl5n9"><rect x="133.79" y="240.63" width="57.43" height="42.03" rx="6.48" style="fill: rgb(255, 255, 255); opacity: 0.3; transform-origin: 162.505px 261.645px;" class="animable" id="elsd67zygrpl"></rect></g><rect x="133.79" y="198.71" width="86.31" height="9.17" rx="4.59" style="fill: #00FF88; transform-origin: 176.945px 203.295px;" id="ele5yuz06ydzj" class="animable"></rect><g id="el1m1o9e57fdz"><rect x="133.79" y="198.71" width="86.31" height="9.17" rx="4.59" style="fill: rgb(255, 255, 255); opacity: 0.3; transform-origin: 176.945px 203.295px;" class="animable" id="el9qpszyen13j"></rect></g><rect x="133.79" y="303.52" width="48.15" height="19.75" rx="6.73" style="fill: #00FF88; transform-origin: 157.865px 313.395px;" id="elwn7axly2fi" class="animable"></rect><g id="elgex8oruy52"><rect x="133.79" y="303.52" width="48.15" height="19.75" rx="6.73" style="fill: rgb(255, 255, 255); opacity: 0.3; transform-origin: 157.865px 313.395px;" class="animable" id="el6zsmsyf8owk"></rect></g><rect x="195.21" y="303.52" width="48.15" height="19.75" rx="6.73" style="fill: #00FF88; transform-origin: 219.285px 313.395px;" id="eloygu5ghpgg" class="animable"></rect><g id="elsc5d6ut0tls"><rect x="195.21" y="303.52" width="48.15" height="19.75" rx="6.73" style="fill: rgb(255, 255, 255); opacity: 0.3; transform-origin: 219.285px 313.395px;" class="animable" id="elpcsuf1swxs"></rect></g><rect x="256.64" y="303.52" width="48.15" height="19.75" rx="6.73" style="fill: #00FF88; transform-origin: 280.715px 313.395px;" id="elx6b2o22217" class="animable"></rect><g id="elbfmarkeugzr"><rect x="256.64" y="303.52" width="48.15" height="19.75" rx="6.73" style="fill: rgb(255, 255, 255); opacity: 0.3; transform-origin: 280.715px 313.395px;" class="animable" id="el6k28e4kx01w"></rect></g><rect x="318.06" y="303.52" width="48.15" height="19.75" rx="6.73" style="fill: #00FF88; transform-origin: 342.135px 313.395px;" id="elcpgjuvkrkyu" class="animable"></rect><g id="elvnkfiraybts"><rect x="318.06" y="303.52" width="48.15" height="19.75" rx="6.73" style="fill: rgb(255, 255, 255); opacity: 0.3; transform-origin: 342.135px 313.395px;" class="animable" id="elw74v8m80o0b"></rect></g></g><g id="freepik--Character--inject-1" class="animable" style="transform-origin: 284.727px 260.775px;"><g id="el2fmzfpnk5gd"><path d="M293,166.82c-2.37,6.69-5,13.16-7.79,19.63a168.66,168.66,0,0,1-9.7,19.14c-.49.79-1,1.58-1.53,2.37l-.39.59-.53.73c-.36.46-.7.86-1,1.25a52.21,52.21,0,0,1-4,4c-2.67,2.47-5.39,4.71-8.14,6.92-5.52,4.38-11.16,8.48-17,12.37l-3.49-4.33L254.13,215c2.43-2.41,4.84-4.84,7.09-7.27,1.11-1.21,2.19-2.45,3.08-3.59.22-.28.41-.56.58-.8l.21-.34.29-.52c.39-.69.8-1.36,1.18-2.07,3.06-5.75,5.76-12,8.36-18.34s5.1-12.73,7.5-19.07Z" style="fill: rgb(228, 137, 123); transform-origin: 266.215px 198.41px;" class="animable" id="el4g54g9g3cw5"></path></g><g id="elizrw6pf0l07"><path d="M295.81,162c2.27,6.64-11.07,26.17-11.07,26.17L272,181.08a149,149,0,0,1,7.68-17.8C284.14,154.84,293.32,154.71,295.81,162Z" style="fill: #00FF88; transform-origin: 284.035px 172.45px;" class="animable" id="el25omqs2wojbj"></path></g><g id="elx46icbmxzr"><path d="M295.81,162c2.27,6.64-11.07,26.17-11.07,26.17L272,181.08a149,149,0,0,1,7.68-17.8C284.14,154.84,293.32,154.71,295.81,162Z" style="fill: rgb(255, 255, 255); opacity: 0.7; transform-origin: 284.035px 172.45px;" class="animable" id="elkigsjdmni3"></path></g><g id="el3e436rfx6z2"><path d="M296,162.83c-2.86-1.37-6.15-.22-9.62,5.26s-6.42,14.63-6.74,17.24l5.11,2.83S297.06,170.12,296,162.83Z" style="fill: #00FF88; opacity: 0.31; transform-origin: 287.852px 175.232px;" class="animable" id="eltbsfqlulg1"></path></g><g id="elkjkzjn2z5jn"><path d="M287.18,156.92s-9.52,22.39-2.66,64.08h39.65c.49-6.09-2.31-35.78,4.56-64.46a101.24,101.24,0,0,0-13.22-1.68,147.9,147.9,0,0,0-16.85,0A76.45,76.45,0,0,0,287.18,156.92Z" style="fill: #00FF88; transform-origin: 305.383px 187.81px;" class="animable" id="elwuhf02keqzl"></path></g><g id="el4dpz2924iwn"><path d="M287.18,156.92s-9.52,22.39-2.66,64.08h39.65c.49-6.09-2.31-35.78,4.56-64.46a101.24,101.24,0,0,0-13.22-1.68,147.9,147.9,0,0,0-16.85,0A76.45,76.45,0,0,0,287.18,156.92Z" style="fill: rgb(255, 255, 255); opacity: 0.7; transform-origin: 305.383px 187.81px;" class="animable" id="eln57c1go6elk"></path></g><polygon points="338.21 343.67 332.34 348.93 321.15 337.29 327.03 332.03 338.21 343.67" style="fill: rgb(228, 137, 123); transform-origin: 329.68px 340.48px;" id="el579lnyslczl" class="animable"></polygon><polygon points="318.08 354.62 310.67 354.62 309.71 337.45 317.12 337.45 318.08 354.62" style="fill: rgb(228, 137, 123); transform-origin: 313.895px 346.035px;" id="elzuevkp39je" class="animable"></polygon><polygon points="321.16 337.29 326.92 343.29 332.8 338.03 327.04 332.03 321.16 337.29" style="fill: rgb(206, 111, 100); transform-origin: 326.98px 337.66px;" id="el8q046nod8kd" class="animable"></polygon><polygon points="317.12 337.46 309.71 337.46 310.21 346.31 317.62 346.31 317.12 337.46" style="fill: rgb(206, 111, 100); transform-origin: 313.665px 341.885px;" id="el46rz61qlvcq" class="animable"></polygon><g id="elci9u2n5alah"><path d="M284.52,221s-7.81,54.06-10.47,83.48c-2.14,23.61,48.91,94,48.91,94l9.87-9.29s-37.28-63.11-34.41-89.39c2.78-25.45,12.2-78.83,12.2-78.83Z" style="fill: #00FF88; transform-origin: 303.407px 309.725px;" class="animable" id="elx8wt32nwdee"></path></g><g id="ellth9qc1maio"><path d="M284.52,221s-7.81,54.06-10.47,83.48c-2.14,23.61,48.91,94,48.91,94l9.87-9.29s-37.28-63.11-34.41-89.39c2.78-25.45,12.2-78.83,12.2-78.83Z" style="opacity: 0.7; transform-origin: 303.407px 309.725px;" class="animable" id="eluttad0e1bch"></path></g><g id="elxjay6plr31"><path d="M298.42,299.83c1.43-13.11,4.63-33.65,7.38-50.47-1.44-2.82-5.48-8.53-5.48-8.53-3.62,12.51-11.49,59.67-.26,123.36,11.7,18.86,22.9,34.32,22.9,34.32l1.53-24.32C313.68,353.85,296.43,318,298.42,299.83Z" style="opacity: 0.2; transform-origin: 309.37px 319.67px;" class="animable" id="elqlglgf3vw9e"></path></g><g id="elamd8rm4ffk4"><path d="M298.62,221s-.7,56.65.5,77.88c1.31,23.24,7.91,100.24,7.91,100.24h13.58S320.2,324,321,301c.89-25,3.19-80,3.19-80Z" style="fill: #00FF88; transform-origin: 311.304px 310.06px;" class="animable" id="elmr15rbcpdg"></path></g><g id="elvg7rac493d"><path d="M298.62,221s-.7,56.65.5,77.88c1.31,23.24,7.91,100.24,7.91,100.24h13.58S320.2,324,321,301c.89-25,3.19-80,3.19-80Z" style="opacity: 0.7; transform-origin: 311.304px 310.06px;" class="animable" id="elhr2kmjgm618"></path></g><g id="eljeb9601cp0a"><path d="M310.28,408.72h8.33a.53.53,0,0,1,.55.5l.41,6.59a1.31,1.31,0,0,1-1.3,1.32c-2.9-.05-4.29-.22-7.95-.22-2.25,0-11.83.24-14.94.24s-3-3.08-1.71-3.36c5.91-1.25,13.24-3,15.34-4.62A2.09,2.09,0,0,1,310.28,408.72Z" style="fill: rgb(38, 50, 56); transform-origin: 306.194px 412.935px;" class="animable" id="el8vwqlgro5b6"></path></g><g id="elbt4lfbjt4kh"><path d="M330.72,401.78l7.14-4.81a.66.66,0,0,1,.82,0l5.46,5.51a1.1,1.1,0,0,1-.26,1.67c-4.56,3.51-7.85,6.16-10.45,9.08-3,3.41-4.62,3.9-11.62,3.9-3.24,0-5.07-2.73-3.75-3.15,11.66-3.69,8.54-5.3,11.38-10.71A4,4,0,0,1,330.72,401.78Z" style="fill: rgb(38, 50, 56); transform-origin: 331.021px 406.979px;" class="animable" id="els6tv41wsfgf"></path></g><g id="elzrbgxsb4pr"><path d="M241.11,228.56l-7.73.27,1.62,6.06s8.08.72,8.8-1.72Z" style="fill: rgb(228, 137, 123); transform-origin: 238.59px 231.775px;" class="animable" id="el3ruorjej4uy"></path></g><polygon points="225.04 177.49 230.46 180.65 235 179.94 233.38 173.88 225.04 177.49" style="fill: rgb(228, 137, 123); transform-origin: 230.02px 177.265px;" id="el5os98srompt" class="animable"></polygon><g id="elmszgy4vbqz"><path d="M319.87,163.62c-.82,4.72.27,16,4.32,29.06a190.68,190.68,0,0,1,3.89-33.29v-.06C325.48,159.07,320.66,159.19,319.87,163.62Z" style="fill: #00FF88; opacity: 0.31; transform-origin: 323.848px 175.965px;" class="animable" id="elnur4yle5dos"></path></g><g id="elmfvepggft1"><path d="M314.5,135.88c-1.25,5.42-2.66,15.36,1,19,0,0-1.58,4.49-11.66,4.49-11.08,0-5.19-4.49-5.19-4.49,6.1-1.44,6.1-5.93,5.19-10.14Z" style="fill: rgb(228, 137, 123); transform-origin: 306.293px 147.625px;" class="animable" id="elqkmf4uprpq"></path></g><polygon points="303.56 104.4 300.56 107.59 302.03 110.67 304.42 110.78 306.46 107.84 303.56 104.4" style="fill: #00FF88; transform-origin: 303.51px 107.59px;" id="elsz289hol9d" class="animable"></polygon><g id="el9dxoduzggn"><path d="M310.16,139.49l-6.31,5.22a17.35,17.35,0,0,1,.42,3c2.32-.33,5.58-2.87,5.91-5.29A7.88,7.88,0,0,0,310.16,139.49Z" style="fill: rgb(206, 111, 100); transform-origin: 307.079px 143.6px;" class="animable" id="elxunvxne90rq"></path></g><g id="elipywd8wgog"><path d="M301.35,117.5c-3.79,1.29-6.82,11.34-2.4,14S308.55,115.05,301.35,117.5Z" style="fill: rgb(38, 50, 56); transform-origin: 300.843px 124.519px;" class="animable" id="eluunle7g4jws"></path></g><g id="elgpsa6okldue"><path d="M316.87,130.2c-2.26,7-3.22,11.23-7.78,14.1a9.59,9.59,0,0,1-14.77-8.38c.09-6.73,3.77-17.09,11.52-18.39A9.71,9.71,0,0,1,316.87,130.2Z" style="fill: rgb(228, 137, 123); transform-origin: 305.853px 131.588px;" class="animable" id="elvz2hpgk2azn"></path></g><g id="eluwscf9vl2j"><path d="M322.47,118.5c-2.26,5.46,3,.9,1.64,7.38-.88,4.22-8.5,14.33-11.44,13.41s-2.91-8.09.84-13.16c2.16-2.91-2.51-6.21-13-5.86s-16.83-5.55-2.89-9.88c0,0-5.14,3-2.09,4C299.85,116,327,107.56,322.47,118.5Z" style="fill: rgb(38, 50, 56); transform-origin: 306.964px 124.869px;" class="animable" id="el2ilani7muhb"></path></g><g id="elxzyb5qnpw5"><path d="M320.47,121c-.11,0,2.35-.61,3.66-5C324.13,116.07,323.7,122.54,320.47,121Z" style="fill: rgb(38, 50, 56); transform-origin: 322.298px 118.618px;" class="animable" id="ell0hlv228m7"></path></g><g id="elz77f2nnpck"><path d="M300.84,111.36c-6.45,2-3.78,4.25-1.11,4.81l6.12-2.4C296.55,115,300.84,111.36,300.84,111.36Z" style="fill: rgb(38, 50, 56); transform-origin: 301.345px 113.765px;" class="animable" id="el53v3vv16y7h"></path></g><g id="elmliovlqfzq8"><path d="M318.11,138.75a7.32,7.32,0,0,1-5,2.07c-2.47,0-3-2.34-1.67-4.3,1.18-1.76,3.88-3.88,6.06-2.93S319.75,137.14,318.11,138.75Z" style="fill: rgb(228, 137, 123); transform-origin: 314.99px 137.087px;" class="animable" id="el4pp0ylweoy4"></path></g><g id="el0swo4no3fe3k"><path d="M305.48,129.81c-.15.58-.58,1-1,.9s-.57-.63-.42-1.21.58-1,1-.89S305.63,129.23,305.48,129.81Z" style="fill: rgb(38, 50, 56); transform-origin: 304.77px 129.659px;" class="animable" id="elskrdxhu2f1b"></path></g><g id="elll7ox7ngkn9"><path d="M298.88,128.36c-.15.58-.58,1-1,.9s-.57-.62-.42-1.2.57-1,1-.9S299,127.78,298.88,128.36Z" style="fill: rgb(38, 50, 56); transform-origin: 298.164px 128.21px;" class="animable" id="el7iiq79rdo09"></path></g><g id="elwdz4u35x2f"><path d="M300.9,129.11a22.57,22.57,0,0,1-4,4.35,3.42,3.42,0,0,0,2.66,1.13Z" style="fill: rgb(222, 87, 83); transform-origin: 298.9px 131.851px;" class="animable" id="elid1frat54t"></path></g><g id="elys38isjty78"><path d="M302,136.7a5.53,5.53,0,0,1-1.23-.14.18.18,0,0,1-.13-.21.18.18,0,0,1,.21-.13,5,5,0,0,0,4.24-1,.18.18,0,0,1,.25,0,.18.18,0,0,1,0,.25A5.08,5.08,0,0,1,302,136.7Z" style="fill: rgb(38, 50, 56); transform-origin: 303.013px 135.935px;" class="animable" id="el9uci5cmlyyj"></path></g><g id="elcl3grddv4bs"><path d="M308.1,128.14a.34.34,0,0,1-.32-.21,2.7,2.7,0,0,0-1.9-1.61.35.35,0,0,1-.3-.4.36.36,0,0,1,.4-.3,3.38,3.38,0,0,1,2.44,2,.34.34,0,0,1-.18.46A.35.35,0,0,1,308.1,128.14Z" style="fill: rgb(38, 50, 56); transform-origin: 307.014px 126.879px;" class="animable" id="el0h4l6srtcell"></path></g><g id="elwt51d0t1wf9"><path d="M296.65,125.49a.35.35,0,0,1-.22-.08.36.36,0,0,1-.05-.5,3.67,3.67,0,0,1,2.94-1.37.35.35,0,0,1,.32.38.34.34,0,0,1-.38.32,2.94,2.94,0,0,0-2.34,1.12A.34.34,0,0,1,296.65,125.49Z" style="fill: rgb(38, 50, 56); transform-origin: 297.971px 124.515px;" class="animable" id="el87onpii8229"></path></g><g id="elg8sj5ryub2"><path d="M330.65,161.65c.78,1.21,1.43,2.28,2.09,3.44s1.29,2.28,1.91,3.44c1.22,2.31,2.37,4.67,3.42,7.08A73.7,73.7,0,0,1,343,191l.1.51.05.25.07.42a11.45,11.45,0,0,1,.13,1.69,14.87,14.87,0,0,1-.3,2.82,23.81,23.81,0,0,1-1.46,4.46,47.7,47.7,0,0,1-4,7.21,84,84,0,0,1-9.88,12.13L323.36,217c2.42-4.22,4.83-8.6,6.85-12.89a49,49,0,0,0,2.54-6.34,14.26,14.26,0,0,0,.58-2.78,4.16,4.16,0,0,0,0-.93c0-.09,0-.17-.06-.18s0,0,0-.05l-.06-.2-.12-.41a63.48,63.48,0,0,0-2.25-6.5c-.88-2.17-1.86-4.33-2.89-6.48s-2.14-4.27-3.28-6.39c-.56-1.06-1.15-2.11-1.74-3.15l-1.76-3Z" style="fill: rgb(228, 137, 123); transform-origin: 332.26px 191.07px;" class="animable" id="elbbcfidqt5l"></path></g><g id="elo1mj5b9ql7"><path d="M307.66,410a2,2,0,0,1-1.4-.39,1,1,0,0,1-.22-.94.67.67,0,0,1,.41-.49c.91-.36,3,1.08,3.24,1.24a.16.16,0,0,1,.07.18.17.17,0,0,1-.13.14A9.5,9.5,0,0,1,307.66,410Zm-.87-1.53a.66.66,0,0,0-.21,0,.29.29,0,0,0-.19.24.63.63,0,0,0,.12.62c.34.34,1.31.38,2.64.12A5.94,5.94,0,0,0,306.79,408.48Z" style="fill: rgb(255, 255, 255); transform-origin: 307.884px 409.066px;" class="animable" id="el24mf2wmsklo"></path></g><g id="elu3wzsxfi0lr"><path d="M309.59,409.75l-.09,0c-.74-.44-1.84-2-1.67-2.8a.66.66,0,0,1,.63-.53.89.89,0,0,1,.73.24c.75.73.58,2.86.58,2.95a.18.18,0,0,1-.1.14Zm-1-3h-.08c-.25,0-.31.15-.33.25-.11.53.62,1.7,1.26,2.24a3.85,3.85,0,0,0-.48-2.34A.53.53,0,0,0,308.58,406.75Z" style="fill: rgb(255, 255, 255); transform-origin: 308.799px 408.081px;" class="animable" id="elnxbf04iasym"></path></g><g id="elvkgj47nz6c"><path d="M325.92,405.8a1.3,1.3,0,0,1-.54-.1.88.88,0,0,1-.53-.62.51.51,0,0,1,.11-.49c.67-.81,4.18-.57,4.58-.54a.17.17,0,0,1,.16.13.18.18,0,0,1-.08.19A9.34,9.34,0,0,1,325.92,405.8Zm2.12-1.46c-1.23,0-2.52.12-2.81.47a.17.17,0,0,0,0,.18.53.53,0,0,0,.32.39c.56.23,1.82-.15,3.41-1Z" style="fill: rgb(255, 255, 255); transform-origin: 327.266px 404.897px;" class="animable" id="el1w3ggwhwf6x"></path></g><g id="el64eolldj7oy"><path d="M329.53,404.4h0c-1,0-3.25-.77-3.42-1.57,0-.2,0-.48.48-.71,1.72-.81,3.05,1.91,3.11,2a.23.23,0,0,1,0,.18A.19.19,0,0,1,329.53,404.4Zm-2.31-2.07a1.09,1.09,0,0,0-.49.11c-.21.1-.31.21-.29.31.1.47,1.72,1.13,2.78,1.27C328.9,403.48,328.13,402.33,327.22,402.33Z" style="fill: rgb(255, 255, 255); transform-origin: 327.914px 403.185px;" class="animable" id="elswgdy2i8ol"></path></g><g id="eldrkwc4phfzh"><path d="M325.34,215.38,318,214.09l3.79,8.55s6.73,0,6.43-3.52Z" style="fill: rgb(228, 137, 123); transform-origin: 323.115px 218.365px;" class="animable" id="el5xktz6rudz5"></path></g><polygon points="312.45 163.43 315.92 170.34 321.75 167.68 317.96 159.14 312.45 163.43" style="fill: rgb(228, 137, 123); transform-origin: 317.1px 164.74px;" id="elx6bbaevqn0s" class="animable"></polygon><polygon points="333.43 333.7 322.36 344.13 318.79 340.3 331.46 328.76 333.43 333.7" style="fill: #00FF88; transform-origin: 326.11px 336.445px;" id="eldfp57ajy7jm" class="animable"></polygon><g id="el39zczh65x8u"><polygon points="333.43 333.7 322.36 344.13 318.79 340.3 331.46 328.76 333.43 333.7" style="fill: rgb(255, 255, 255); opacity: 0.6; transform-origin: 326.11px 336.445px;" class="animable" id="elyql1fegjyl"></polygon></g><polygon points="321.15 344.17 306.48 344.17 305.67 339.02 321.86 339.82 321.15 344.17" style="fill: #00FF88; transform-origin: 313.765px 341.595px;" id="el3aejjrqfafx" class="animable"></polygon><g id="elfn7hqspn5ud"><polygon points="321.15 344.17 306.48 344.17 305.67 339.02 321.86 339.82 321.15 344.17" style="fill: rgb(255, 255, 255); opacity: 0.6; transform-origin: 313.765px 341.595px;" class="animable" id="elpcc62luttnr"></polygon></g><g id="elpzghqietbt"><path d="M328.73,156.54c7,1,14.17,25.32,14.17,25.32l-15,8.32s-6.09-11.56-9-20.14C315.85,161.05,321.24,155.44,328.73,156.54Z" style="fill: #00FF88; transform-origin: 330.466px 173.291px;" class="animable" id="eluzdqic7su6"></path></g><g id="el8ml2dhhpnnr"><path d="M328.73,156.54c7,1,14.17,25.32,14.17,25.32l-15,8.32s-6.09-11.56-9-20.14C315.85,161.05,321.24,155.44,328.73,156.54Z" style="fill: rgb(255, 255, 255); opacity: 0.7; transform-origin: 330.466px 173.291px;" class="animable" id="elbjulwlo3cqv"></path></g><g id="elsqtg2wg59yq"><polygon points="303.56 104.4 300.56 107.59 302.03 110.67 304.42 110.78 306.46 107.84 303.56 104.4" style="opacity: 0.2; transform-origin: 303.51px 107.59px;" class="animable" id="el7mf6vh585n8"></polygon></g><g id="el4yn5hpub97o"><path d="M302.29,165.07s-5.69,23.57-5.91,28.47c-.31,6.74,2.51,18.25,2.51,18.25s4-9.57,4.82-18.46.21-23.27.58-28.26Z" style="fill: #00FF88; transform-origin: 300.323px 188.43px;" class="animable" id="eli07ga3wnas"></path></g><g id="elsme6zgubu2"><path d="M302.29,165.07s-5.69,23.57-5.91,28.47c-.31,6.74,2.51,18.25,2.51,18.25s4-9.57,4.82-18.46.21-23.27.58-28.26Z" style="opacity: 0.2; transform-origin: 300.323px 188.43px;" class="animable" id="el40cr51m1mam"></path></g><g id="elm1ql4cj9nco"><path d="M303.56,159.35a13,13,0,0,1,1.92,6.11s12.48-4.4,11.89-10.85c0,0-1.77-1.05-2.89-1.9C314.48,152.71,314.06,156.77,303.56,159.35Z" style="fill: #00FF88; transform-origin: 310.475px 159.085px;" class="animable" id="el8rhihdoe995"></path></g><g id="elso7ixjfn54a"><path d="M303.56,159.35a13,13,0,0,1,1.92,6.11s12.48-4.4,11.89-10.85c0,0-1.77-1.05-2.89-1.9C314.48,152.71,314.06,156.77,303.56,159.35Z" style="fill: rgb(255, 255, 255); opacity: 0.6; transform-origin: 310.475px 159.085px;" class="animable" id="el6o9q7xr15xk"></path></g><g id="el8nrx7q7ggqd"><path d="M303.56,159.35a17.56,17.56,0,0,0-2.44,5.72s-5.65-3.82-3.95-10.19a21.09,21.09,0,0,1,3.19-1S299.62,158,303.56,159.35Z" style="fill: #00FF88; transform-origin: 300.206px 159.475px;" class="animable" id="el0mm4h10nnxa"></path></g><g id="eltkek3jjax6s"><path d="M303.56,159.35a17.56,17.56,0,0,0-2.44,5.72s-5.65-3.82-3.95-10.19a21.09,21.09,0,0,1,3.19-1S299.62,158,303.56,159.35Z" style="fill: rgb(255, 255, 255); opacity: 0.6; transform-origin: 300.206px 159.475px;" class="animable" id="elnq70axd7mxn"></path></g></g><defs>     <filter id="active" height="200%">         <feMorphology in="SourceAlpha" result="DILATED" operator="dilate" radius="2"></feMorphology>                <feFlood flood-color="#32DFEC" flood-opacity="1" result="PINK"></feFlood>        <feComposite in="PINK" in2="DILATED" operator="in" result="OUTLINE"></feComposite>        <feMerge>            <feMergeNode in="OUTLINE"></feMergeNode>            <feMergeNode in="SourceGraphic"></feMergeNode>        </feMerge>    </filter>    <filter id="hover" height="200%">        <feMorphology in="SourceAlpha" result="DILATED" operator="dilate" radius="2"></feMorphology>                <feFlood flood-color="#ff0000" flood-opacity="0.5" result="PINK"></feFlood>        <feComposite in="PINK" in2="DILATED" operator="in" result="OUTLINE"></feComposite>        <feMerge>            <feMergeNode in="OUTLINE"></feMergeNode>            <feMergeNode in="SourceGraphic"></feMergeNode>        </feMerge>            <feColorMatrix type="matrix" values="0   0   0   0   0                0   1   0   0   0                0   0   0   0   0                0   0   0   1   0 "></feColorMatrix>    </filter></defs></svg>